G04 #@! TF.GenerationSoftware,KiCad,Pcbnew,5.1.2-f72e74a~84~ubuntu18.04.1*
G04 #@! TF.CreationDate,2019-07-22T16:22:56+05:30*
G04 #@! TF.ProjectId,openPlc_Rpi,6f70656e-506c-4635-9f52-70692e6b6963,rev?*
G04 #@! TF.SameCoordinates,Original*
G04 #@! TF.FileFunction,Profile,NP*
%FSLAX46Y46*%
G04 Gerber Fmt 4.6, Leading zero omitted, Abs format (unit mm)*
G04 Created by KiCad (PCBNEW 5.1.2-f72e74a~84~ubuntu18.04.1) date 2019-07-22 16:22:56*
%MOMM*%
%LPD*%
G04 APERTURE LIST*
%ADD10C,0.100000*%
G04 APERTURE END LIST*
D10*
X33214000Y-75854000D02*
X35414000Y-75854000D01*
X33214000Y-101554000D02*
X33214000Y-75854000D01*
X186014000Y-75854000D02*
X188214000Y-75854000D01*
X188214000Y-155554000D02*
X33214000Y-155554000D01*
X33214000Y-47554000D02*
X188214000Y-47554000D01*
X35414000Y-140654000D02*
X35414000Y-127254000D01*
X188214000Y-75854000D02*
X188214000Y-101554000D01*
X188214000Y-62454000D02*
X186014000Y-62454000D01*
X33214000Y-127254000D02*
X33214000Y-101554000D01*
X35414000Y-62454000D02*
X33214000Y-62454000D01*
X186014000Y-62454000D02*
X186014000Y-75854000D01*
X188214000Y-140654000D02*
X188214000Y-155554000D01*
X33214000Y-62454000D02*
X33214000Y-47554000D01*
X33214000Y-155554000D02*
X33214000Y-140654000D01*
X35414000Y-75854000D02*
X35414000Y-62454000D01*
X35414000Y-127254000D02*
X33214000Y-127254000D01*
X188214000Y-47554000D02*
X188214000Y-62454000D01*
X33214000Y-140654000D02*
X35414000Y-140654000D01*
X186014000Y-140654000D02*
X188214000Y-140654000D01*
X188214000Y-101554000D02*
X188214000Y-127254000D01*
X186014000Y-127254000D02*
X186014000Y-140654000D01*
X188214000Y-127254000D02*
X186014000Y-127254000D01*
M02*
