M48
; DRILL file {KiCad 5.1.2-f72e74a~84~ubuntu18.04.1} date Mon Jul 22 16:25:01 2019
; FORMAT={-:-/ absolute / inch / decimal}
; #@! TF.CreationDate,2019-07-22T16:25:01+05:30
; #@! TF.GenerationSoftware,Kicad,Pcbnew,5.1.2-f72e74a~84~ubuntu18.04.1
; #@! TF.FileFunction,Plated,1,2,PTH
FMAT,2
INCH
T1C0.0157
T2C0.0236
T3C0.0394
T4C0.0472
T5C0.0512
%
G90
G05
T1
X2.26Y-4.77
X3.21Y-3.6
X3.44Y-3.31
X3.62Y-3.27
X3.715Y-4.775
X3.79Y-3.27
X3.9134Y-4.4921
X3.97Y-3.31
X4.0925Y-4.4921
X4.1476Y-4.4626
X4.275Y-4.775
X4.445Y-4.775
X4.47Y-3.31
X4.64Y-3.27
X4.8Y-3.27
X4.855Y-3.795
X4.915Y-3.82
X4.98Y-3.31
X4.98Y-4.775
X5.055Y-3.73
X5.105Y-3.765
X6.5758Y-3.25
X6.6772Y-2.8839
X6.6949Y-3.0374
X6.9075Y-3.1142
X6.9665Y-3.0866
X7.1004Y-2.9705
X7.2047Y-3.0748
T2
X3.0098Y-4.2776
X5.5089Y-4.2441
T3
X6.9872Y-4.0492
X6.9872Y-4.1476
X6.9872Y-4.2461
X6.9872Y-4.3445
X6.6801Y-3.4803
X6.6801Y-3.5787
X6.6801Y-3.6772
X6.6801Y-3.7756
X6.9872Y-3.4803
X6.9872Y-3.5787
X6.9872Y-3.6772
X6.9872Y-3.7756
X3.49Y-3.91
X3.49Y-4.01
X3.59Y-3.91
X3.59Y-4.01
X3.69Y-3.91
X3.69Y-4.01
X3.79Y-3.91
X3.79Y-4.01
X3.89Y-3.91
X3.89Y-4.01
X3.99Y-3.91
X3.99Y-4.01
X4.09Y-3.91
X4.09Y-4.01
X4.19Y-3.91
X4.19Y-4.01
X4.29Y-3.91
X4.29Y-4.01
X4.39Y-3.91
X4.39Y-4.01
X4.49Y-3.91
X4.49Y-4.01
X4.59Y-3.91
X4.59Y-4.01
X4.69Y-3.91
X4.69Y-4.01
X4.79Y-3.91
X4.79Y-4.01
X4.89Y-3.91
X4.89Y-4.01
X4.99Y-3.91
X4.99Y-4.01
X5.09Y-3.91
X5.09Y-4.01
X5.19Y-3.91
X5.19Y-4.01
X5.29Y-3.91
X5.29Y-4.01
X5.39Y-3.91
X5.39Y-4.01
X6.6801Y-4.0492
X6.6801Y-4.1476
X6.6801Y-4.2461
X6.6801Y-4.3445
T4
X3.3799Y-4.3986
T5
X4.4881Y-4.9587
X4.4881Y-5.4391
X4.7243Y-4.88
X4.9605Y-4.9587
X4.9605Y-5.4391
X5.2166Y-4.9587
X5.2166Y-5.4391
X5.4529Y-4.88
X5.6891Y-4.9587
X5.6891Y-5.4391
X1.5738Y-4.9587
X1.5738Y-5.4391
X1.81Y-4.88
X2.0462Y-4.9587
X2.0462Y-5.4391
X5.3794Y-2.0886
X5.5763Y-2.0886
X5.7731Y-2.0886
X5.97Y-2.0886
X3.3929Y-2.0886
X3.5898Y-2.0886
X3.7866Y-2.0886
X3.9835Y-2.0886
X4.1803Y-2.0886
X4.3772Y-2.0886
X4.574Y-2.0886
X4.7709Y-2.0886
X4.9677Y-2.0886
X5.1646Y-2.0886
X2.3024Y-4.9587
X2.3024Y-5.4391
X2.5386Y-4.88
X2.7748Y-4.9587
X2.7748Y-5.4391
X6.6738Y-4.9587
X6.6738Y-5.4391
X6.91Y-4.88
X7.1462Y-4.9587
X7.1462Y-5.4391
X6.9567Y-2.0935
X7.1535Y-2.0935
X6.4783Y-2.0886
X6.6752Y-2.0886
X2.9631Y-2.0886
X3.16Y-2.0886
X4.46Y-5.91
X4.6569Y-5.91
X4.8537Y-5.91
X5.0506Y-5.91
X5.2474Y-5.91
X5.4443Y-5.91
X5.6411Y-5.91
X5.838Y-5.91
X6.0348Y-5.91
X6.2317Y-5.91
X6.4285Y-5.91
X6.6254Y-5.91
X2.08Y-5.91
X2.2769Y-5.91
X2.4737Y-5.91
X2.6706Y-5.91
X2.8674Y-5.91
X3.0643Y-5.91
X3.2611Y-5.91
X3.458Y-5.91
X3.6548Y-5.91
X3.8517Y-5.91
X4.0485Y-5.91
X4.2454Y-5.91
X5.9452Y-4.9587
X5.9452Y-5.4391
X6.1814Y-4.88
X6.4176Y-4.9587
X6.4176Y-5.4391
X3.7595Y-4.9587
X3.7595Y-5.4391
X3.9957Y-4.88
X4.2319Y-4.9587
X4.2319Y-5.4391
X3.0309Y-4.9587
X3.0309Y-5.4391
X3.2671Y-4.88
X3.5034Y-4.9587
X3.5034Y-5.4391
T0
M30
